<svg width="144" height="144" viewBox="0 0 144 144" fill="none" xmlns="http://www.w3.org/2000/svg">
  <path d="M57.9023 86.9577C56.974 87.1243 56.0456 87.2909 55.0935 87.4576C53.9509 79.7689 51.3086 82.2207 44.096 80.1497C40.097 79.0072 38.3831 76.8886 37.6928 75.0081C35.0505 75.5794 32.7892 75.5794 30.4802 75.5794C23.0296 75.5556 15.2457 73.5799 15.3885 72.1754C15.4599 71.3661 16.7453 70.6758 18.8401 70.5806C24.9577 70.2949 21.6251 70.1997 24.0293 71.4137C26.4573 72.6277 29.3614 74.651 31.6466 70.8662C33.9318 67.0814 25.8622 69.9855 17.388 66.5339C8.91383 63.0823 2.77242 60.3687 7.19995 59.5117C11.6037 58.6548 12.7463 58.7024 15.1267 61.6303C17.5071 64.5344 24.196 68.2002 28.0522 64.2963C31.9084 60.3925 18.0069 62.7253 11.9607 56.1792C5.86693 49.6331 2.39156 44.1106 7.72364 47.3479C13.0557 50.5853 23.6247 60.3925 25.9812 55.8697C28.3616 51.347 17.7213 58.869 15.1029 45.158C12.4844 31.4231 15.2695 25.8292 19.697 34.589C24.1007 43.3251 30.3612 52.8466 32.3607 55.9888C34.3364 59.1309 38.9068 49.3951 33.0272 44.8723C27.1476 40.3496 23.9579 33.5655 28.2188 36.3743C32.4797 39.1832 42.1679 43.2299 41.0015 50.5377C39.8351 57.8455 34.0746 56.5363 35.5504 59.7498C37.0025 62.9395 42.9773 64.1297 43.5723 56.3458C44.0722 49.8235 39.6209 39.4688 40.7635 38.8499C40.9539 38.7547 41.3586 39.0642 42.1203 39.6831C43.7152 40.9685 45.9051 42.7776 47.0239 45.7769C47.6428 47.4194 47.6428 48.8952 47.619 51.8231C47.5952 56.084 47.5714 58.2263 46.5716 60.2021C44.4293 64.3677 40.0018 65.3199 40.454 66.9148C40.6921 67.7241 42.1203 68.0097 43.0011 67.9859C45.5243 67.9145 47.1191 65.0819 47.619 64.1773C49.0711 61.6065 49.3805 58.5358 49.5471 56.8219C49.6185 56.1078 49.7138 54.751 50.3803 53.0609C50.7611 52.0849 51.2848 50.7519 51.7371 50.7757C52.8083 50.8709 55.3553 59.3927 51.5467 66.2483C48.6664 71.3899 43.4771 73.318 40.216 74.3178C41.2158 75.627 42.763 76.6268 44.7625 77.8408C48.1189 79.8641 49.5233 76.722 54.0223 78.4359C56.5693 79.388 57.5453 83.5299 57.9023 86.9577Z" fill="#02C961"/>
  <path d="M134.313 40.1597C128.767 48.3958 128.815 49.7526 121.983 50.6096C115.151 51.4665 107.581 49.2766 107.367 52.4187C107.129 55.5608 105.51 57.2033 113.294 56.2749C121.078 55.3228 129.243 53.6089 124.173 57.8222C119.079 62.0117 107.724 65.1062 101.226 58.941C94.7273 52.7757 93.2039 58.084 97.9647 62.2497C102.725 66.3916 118.079 62.0831 118.626 65.011C119.174 67.9626 113.651 67.2961 105.63 68.1055C97.6076 68.9148 93.1325 64.273 90.4426 57.7746C89.9665 56.632 89.3238 56.1559 88.9906 56.2511C88.1574 56.4892 88.1336 61.2737 90.4426 64.9872C91.8709 67.2723 93.7514 68.4387 94.2036 68.7244C97.9885 71.0095 101.202 69.8193 105.915 71.9379C106.558 72.2235 107.986 72.9139 108.795 74.3897C108.914 74.6039 109.676 75.9846 109.343 76.5083C108.058 78.4126 87.5385 73.4613 81.5876 58.5125C81.0639 57.1795 80.683 55.8464 80.3974 54.5848C76.9458 54.8943 73.5656 57.6793 71.7565 59.5123C69.2095 62.1307 75.827 61.7736 78.6121 66.1774C81.3971 70.5811 75.8984 73.985 71.3757 78.6506C69.2333 80.8644 68.7572 82.9591 68.8525 84.5302C68.186 84.6968 67.4956 84.8634 66.8053 85.0539C65.3057 74.1755 76.1127 72.1045 74.5892 69.129C72.9705 65.9393 65.0914 62.1545 72.185 55.7512C75.0177 53.1804 77.7551 52.3473 80.0403 52.2759C79.5166 48.015 80.1355 44.73 80.2069 44.3968C80.9448 40.7548 82.2303 38.2316 83.8489 35.7797C91.3948 24.1872 100.155 18.2363 96.6316 23.3541C93.1087 28.4719 96.7269 28.9718 90.8711 33.0423C85.0153 37.1128 84.9677 39.3741 86.1103 41.0404C87.2529 42.7067 91.7756 34.5657 101.607 27.9483C111.438 21.3308 119.888 23.1399 115.556 25.4488C111.223 27.7578 111.461 22.9732 104.558 30.6857C97.679 38.3982 99.5119 40.8262 94.7749 41.6117C90.038 42.3972 87.4433 45.4679 91.0139 45.6108C94.5845 45.7774 100.297 36.3748 112.366 31.7093C124.411 27.0675 130.766 25.2108 128.719 28.6386C126.672 32.0663 115.484 33.2327 109.962 39.8026C104.439 46.3487 108.534 47.158 116.508 42.0402C124.458 36.9223 121.459 34.8038 131.219 32.7328C140.931 30.6857 139.86 31.9235 134.313 40.1597Z" fill="#02C961"/>
  <path d="M91.6566 95.7659C91.2281 97.5988 89.6809 98.7652 86.9672 99.6936C86.9672 99.6936 66.4959 101.884 58.4025 104.05C50.3092 106.216 46.7862 105.978 50.3092 106.216C53.3799 106.406 80.1117 103.812 87.1339 103.121C87.2767 106.359 87.4433 110.001 87.5147 112.333C87.6575 117.356 87.5147 131.424 87.5147 134.019C87.5147 136.613 82.7777 136.328 77.7551 137.899C72.7325 139.47 55.07 141.922 53.4751 141.636C51.904 141.35 50.5948 131.305 49.0238 127.139C47.8336 124.021 45.3818 113.69 44.2154 108.668C41.0019 109.025 38.6215 108.739 37.5503 107.168C37.3837 106.93 37.2884 106.716 36.86 104.597C35.5746 98.1463 34.9319 94.909 35.4793 93.3141C36.7648 89.4817 43.7631 89.1484 52.0231 87.9344C53.0704 87.7916 54.094 87.625 55.0938 87.4583C56.0459 87.2917 56.9981 87.1251 57.9026 86.9585C58.8548 86.768 59.7593 86.6014 60.6639 86.411C61.3542 86.2681 62.0445 86.1253 62.711 85.9825C64.1155 85.673 65.4723 85.3636 66.7577 85.0303C67.448 84.8637 68.1383 84.6733 68.8048 84.5067C80.2783 81.6026 86.872 79.1032 89.3238 82.4833C90.2998 83.8163 90.7282 86.2681 91.2043 88.9342C91.5138 90.7671 92.0851 93.933 91.6566 95.7659Z" fill="#3700ED"/>
  <path d="M75.3272 35.7079C73.0182 39.1595 68.5907 40.0164 61.6876 41.278C61.4257 41.3256 61.1639 41.3733 60.9258 41.4209C60.7116 44.3249 59.4976 45.896 58.8549 47.8955C57.998 50.5854 59.5928 50.2997 62.3779 52.7753C65.1629 55.2509 63.4491 64.7011 61.7828 73.9608C60.8782 78.9834 61.7352 83.1729 62.7111 85.958C62.0446 86.1008 61.3543 86.2436 60.664 86.3865C56.4983 69.8427 61.6162 68.5335 61.0211 60.3688C60.3784 51.6803 54.356 50.99 57.2124 47.3718C58.5217 45.7056 58.8073 43.587 58.7597 41.8017C56.7126 42.135 55.3795 42.254 54.1893 41.9922C48.0003 40.7305 44.7154 34.8034 43.906 33.1609C40.6687 26.6624 41.9303 19.069 43.0967 18.8547C43.7156 18.7357 44.7392 20.6162 44.9772 21.616C46.4293 27.8764 43.5966 26.6624 47.1196 30.3044C50.6426 33.9702 56.8792 37.4694 53.7133 29.9474C50.5473 22.4015 42.6444 18.9976 44.5249 13.3798C46.4055 7.76212 54.8558 15.9031 54.6178 23.8298C54.3798 31.7803 57.7599 28.3525 59.569 26.0435C61.3781 23.7345 51.8566 16.2601 53.8085 9.28557C55.7604 2.28722 56.6411 -1.61663 58.7121 5.71498C60.783 13.0466 65.401 21.8778 63.4015 25.5675C61.4019 29.2571 67.0673 32.2564 68.7097 26.9243C70.3522 21.5922 63.3538 14.9271 68.1384 16.8076C72.923 18.6881 77.2553 27.2575 71.8995 29.7569C67.0911 31.9945 61.9256 32.2802 61.6162 33.8512C61.5686 34.1131 61.6638 34.3511 61.7114 34.4463C62.1637 35.7555 64.2584 36.3744 65.8056 36.2078C67.0196 36.0888 67.9718 35.3271 69.8047 33.8512C72.6374 31.566 73.4229 30.2092 74.8987 30.352C74.994 30.352 75.9937 30.4711 76.4698 31.1852C77.3744 32.661 75.5415 35.4223 75.3272 35.7079Z" fill="#02C961"/>
  <path d="M87.157 103.121C80.1586 103.811 53.403 106.406 50.3323 106.216C46.8093 106.001 50.3323 106.216 58.4257 104.049C66.519 101.883 86.9904 99.6934 86.9904 99.6934C87.038 100.717 87.0856 101.883 87.157 103.121Z" fill="#FF739E"/>
  </svg>
