<svg width="143" height="143" viewBox="0 0 143 143" fill="none" xmlns="http://www.w3.org/2000/svg"><g clip-path="url(#clip0_552_2222)"><path d="M140.435 109.802c-.942.145-3.577.797-7.106 1.716.024-3.118.121-6.768.314-11.022.749-17.815-6.817-36.403-12.521-53.855-5.681-17.453-22.746-21.223-42.857-21.223s-34.107 12.52-40.923 18.588c-6.817 6.067-15.156 19.724-22.383 43.606-5.366 17.815-6.744 28.885-7.083 33.357-2.755.218-5.148.29-6.72.097-4.495-.556 4.23-48.392 24.197-74.57 19.966-26.18 69.227-38.338 87.236-22.264 18.008 16.074 28.692 43.945 29.272 63.62.556 19.701 2.514 21.393-1.426 21.949z" fill="#E5AE00"/><path d="M133.667 100.495c-.169 4.23-.266 7.904-.315 11.023-2.102.531-4.52 1.16-7.034 1.813-1.281-11.24-4.858-34.18-6.188-41.359-1.764-9.547-5.027-29.368-18.322-38.385-13.295-9.04-42.905 2.007-54.967 11.289-12.038 9.282-19.82 32.873-23.833 45.177-3.457 10.539-5.777 25.912-6.382 30.07-2.9.314-5.994.677-8.75.87.338-4.472 1.716-15.542 7.082-33.357 7.204-23.882 15.543-37.54 22.384-43.606 6.816-6.068 20.86-18.589 40.947-18.589 20.087 0 37.152 3.795 42.857 21.223 5.68 17.428 13.27 36.016 12.521 53.831z" fill="#FF0098"/><path d="M114.257 103.033c1.475-18.902-5.148-35.363-5.898-43.944-.725-8.605-10.321-18.66-22.842-21.852-12.521-3.19-21.61 7.131-34.372 16.945-12.763 9.814-18.178 34.614-21.127 43.461-2.32 6.962-4.037 17.404-4.64 21.537-.678.073-1.33.121-1.983.194-1.885.169-4.254.435-6.768.725.604-4.158 2.925-19.531 6.381-30.07 4.013-12.304 11.796-35.895 23.834-45.177C58.88 35.57 88.49 24.523 101.809 33.563c13.294 9.04 16.558 28.862 18.322 38.385 1.33 7.18 4.907 30.119 6.188 41.359-4.351 1.111-9.04 2.272-13.125 3.166.29-3.65.628-8.098 1.063-13.44z" fill="#004031"/><path d="M114.257 103.033c-.411 5.318-.773 9.79-1.063 13.464-6.285 1.353-11.095 2.079-10.999.894.29-3.094 6.744-48.682-10.418-66.69-17.162-18.008-44.742 18.854-49.794 43.05l-5.076 24.196s-5.85.677-11.53 1.233c.628-4.133 2.32-14.6 4.641-21.537 2.949-8.847 8.34-33.648 21.126-43.461 12.763-9.814 21.852-20.136 34.373-16.945 12.52 3.19 22.093 13.27 22.842 21.852.725 8.605 7.373 25.042 5.898 43.944z" fill="#60772F"/><path d="M93.735 80.7s-.797-11.095-9.475-9.67c-8.654 1.404-11.893 12.91-11.893 12.91s-1.813-7.59-8.87-6.503c-7.059 1.088-11.7 17.187-4.835 20.015 6.84 2.828 70.123 5.632 70.944-9.886.218-3.965-.894-9.33-4.52-11.192-4.061-2.079-10.442.338-16.05 6.14.049-.58.339-4.617-2.635-7.373-.386-.362-1.837-1.692-3.819-1.91-3.335-.362-7.082 2.611-8.847 7.47zM53.03 110.89c-.242-.628-1.813-4.641-6.043-6.139-.339-.121-6.043-2.031-9.355 1.692-2.465 2.755-1.74 6.526-1.643 7.034 0 0-.363-1.523-1.427-2.925-1.933-2.538-5.22-2.296-5.656-2.272-3.553.193-5.584 3.07-5.97 3.601-2.128 2.998-2.466 7.542-.363 10.104 2.296 2.78 6.89 2.417 9.064 2.248 36.839-2.876 48.175-1.498 50.06-7.856.968-3.215-.725-7.71-3.601-8.919-2.635-1.112-6.357.459-9.403 3.819-.048-.435-.387-3.698-3.287-5.584-2.732-1.764-5.632-.942-6.333-.725-4.327 1.185-5.874 5.439-6.043 5.922z" fill="#FF73C6"/>
<path d="M53.0297 110.89C52.788 110.262 51.2168 106.249 46.9867 104.751C46.6483 104.63 40.9437 102.72 37.6322 106.443C35.1666 109.198 35.8918 112.969 35.9885 113.477C35.9885 113.477 35.6259 111.954 34.5623 110.552C32.6286 108.014 29.3412 108.256 28.9061 108.28C25.3528 108.473 23.3224 111.35 22.9356 111.881C20.8085 114.879 20.4701 119.423 22.5731 121.985C24.8694 124.765 29.4621 124.402 31.6375 124.233C68.4756 121.357 79.8122 122.735 81.6976 116.377C82.6645 113.162 80.9725 108.667 78.096 107.458C75.4613 106.346 71.7388 107.917 68.6931 111.277C68.6448 110.842 68.3064 107.579 65.4057 105.693C62.6743 103.929 59.7737 104.751 59.0727 104.968C54.7459 106.153 53.1989 110.407 53.0297 110.89Z" fill="#FF73C6"/>
</g>
<defs>
<clipPath id="clip0_552_2222">
<rect width="142.82" height="142.82" fill="white"/>
</clipPath>
</defs>
</svg>
